<svg xmlns="http://www.w3.org/2000/svg" viewBox="0 0 1024 1024" data-aut-id="icon" class="" fill-rule="evenodd"><path class="rui-4K4Y7" d="M511.979 85.321c235.648 0 426.667 191.019 426.667 426.667s-191.019 426.667-426.667 426.667c-235.605 0-426.667-191.019-426.667-426.667s191.061-426.667 426.667-426.667zM511.979 150.601c-199.595 0-361.429 161.792-361.429 361.387 0 199.637 161.835 361.429 361.429 361.429 199.637 0 361.429-161.792 361.429-361.429 0-199.595-161.792-361.387-361.429-361.387zM600.499 335.040c25.728 0 51.499 9.6 67.584 25.728 16.085 0 45.013-9.643 57.899-19.328-6.443 19.328-25.771 41.813-38.613 51.499 22.528 0 44.971-9.685 51.456-12.885-12.843 16.085-25.728 32.171-45.013 45.056 6.4 144.768-109.397 263.851-260.608 263.851-51.499 0-99.755-12.885-148.011-38.656 64.341 9.685 119.040-22.528 135.125-38.613-41.856 0-80.427-35.371-83.669-61.141 9.685 0 28.971 3.243 38.656-3.2-54.699-12.885-70.784-54.699-70.784-86.869 9.643 9.685 32.128 9.685 41.813 9.685-32.171-19.328-54.699-70.827-28.971-119.040 48.256 57.899 122.283 90.069 193.067 93.269-3.243-6.4-3.243-12.885-3.243-19.285 0-48.256 41.856-90.069 93.312-90.069z"></path></svg>