<svg xmlns="http://www.w3.org/2000/svg" viewBox="0 0 1024 1024" data-aut-id="icon" class="" fill-rule="evenodd"><path class="rui-4K4Y7" d="M730.855 763.955h-435.559c-0.833-87.945-2.676-279.627-2.676-289.496 0-119.351 98.911-216.463 220.498-216.463s220.455 97.112 220.455 216.463c0 10-1.843 201.594-2.72 289.496v0zM819.282 748.603c0.92-93.341 2.062-266.38 2.062-274.144 0-141.589-98.692-260.545-231.64-294.319 2.192-7.237 3.684-14.782 3.684-22.765 0-44.345-35.969-80.27-80.27-80.27-44.345 0-80.27 35.923-80.27 80.27 0 7.983 1.491 15.483 3.684 22.765-132.948 33.731-231.64 152.687-231.64 294.319 0 7.721 1.14 182.339 2.019 276.030l-90.27 36.581 0.92 64.609h316.032c3.729 40.881 37.679 73.031 79.523 73.031s75.794-32.151 79.523-73.031h312.962l1.754-64.523-88.078-38.556z"></path></svg>